<svg width="28" height="28" viewBox="0 0 28 28" fill="none" xmlns="http://www.w3.org/2000/svg">
<path d="M22.0852 4.07944C22.083 3.75728 21.8201 3.49786 21.498 3.50001C21.1758 3.50216 20.9164 3.76507 20.9186 4.08723L20.9323 6.15445C19.7307 5.10793 18.302 4.34358 16.7508 3.92691C14.7265 3.38314 12.5858 3.45632 10.6033 4.13706C8.62082 4.8178 6.88678 6.07508 5.62348 7.74775C4.36018 9.42041 3.62517 11.4322 3.5127 13.5253L3.51254 13.5288C3.47308 14.3536 3.52682 15.1803 3.67272 15.993C3.72964 16.3101 4.03285 16.5211 4.34994 16.4641C4.66704 16.4072 4.87796 16.104 4.82103 15.7869C4.69074 15.0611 4.64268 14.3228 4.67779 13.5862C4.7781 11.7258 5.43156 9.93765 6.55446 8.45088C7.6777 6.96365 9.2195 5.84576 10.9822 5.24049C12.7449 4.63522 14.6482 4.57015 16.4482 5.05364C17.8139 5.42048 19.0728 6.09043 20.1347 7.00695L19.189 7.01167C19.1657 7.01179 19.1428 7.01326 19.1203 7.01602L18.0213 7.02335C17.6992 7.02549 17.4398 7.2884 17.4419 7.61056C17.4441 7.93272 17.707 8.19213 18.0291 8.18999L21.5281 8.16666C21.6829 8.16589 21.8309 8.10369 21.9398 7.99374C22.0486 7.8838 22.1093 7.73512 22.1086 7.58041L22.0969 5.24708C22.0968 5.22383 22.0953 5.20089 22.0925 5.17836L22.0852 4.07944Z" fill="#0062E1"/>
<path d="M8.81159 21.105C8.83487 21.1048 8.85782 21.1034 8.88037 21.1006L9.97921 21.0933C10.3014 21.0911 10.5608 20.8282 10.5586 20.5061C10.5565 20.1839 10.2936 19.9245 9.97143 19.9266L6.47243 19.95C6.32015 19.9507 6.1818 20.0098 6.07839 20.1058C6.07218 20.1116 6.06609 20.1175 6.06012 20.1236C5.95146 20.2337 5.89098 20.3815 5.89202 20.5362L5.90368 22.8695C5.90379 22.8928 5.90527 22.9158 5.90803 22.9383L5.91536 24.0372C5.91751 24.3593 6.18041 24.6188 6.50257 24.6166C6.82473 24.6145 7.08415 24.3516 7.082 24.0294L7.06822 21.9622C8.26982 23.0087 9.69856 23.773 11.2497 24.1897C13.2741 24.7335 15.4147 24.6603 17.3972 23.9796C19.3797 23.2988 21.1138 22.0415 22.3771 20.3689C23.6404 18.6962 24.3754 16.6844 24.4878 14.5913L24.488 14.5879C24.5275 13.763 24.4737 12.9364 24.3278 12.1236C24.2709 11.8065 23.9677 11.5956 23.6506 11.6525C23.3335 11.7094 23.1226 12.0126 23.1795 12.3297C23.3098 13.0555 23.3579 13.7937 23.3228 14.5303C23.2225 16.3908 22.569 18.179 21.4461 19.6657C20.3229 21.153 18.7811 22.2709 17.0184 22.8761C15.2556 23.4814 13.3523 23.5465 11.5524 23.063C10.1867 22.6961 8.92775 22.0262 7.86592 21.1097L8.81159 21.105Z" fill="#0062E1"/>
</svg>
