<svg width="24" height="24" viewBox="0 0 24 24" fill="none" xmlns="http://www.w3.org/2000/svg">
<path d="M12 10.8334C12.6444 10.8334 13.1667 11.3557 13.1667 12V17.8334C13.1667 18.4777 12.6444 19 12 19C11.3557 19 10.8334 18.4777 10.8334 17.8334V12C10.8334 11.3557 11.3557 10.8334 12 10.8334Z" fill="#0062E1"/>
<path d="M12 8.50004C12.6444 8.50004 13.1667 7.97771 13.1667 7.33337C13.1667 6.68904 12.6444 6.16671 12 6.16671C11.3557 6.16671 10.8334 6.68904 10.8334 7.33337C10.8334 7.97771 11.3557 8.50004 12 8.50004Z" fill="#0062E1"/>
<path fill-rule="evenodd" clip-rule="evenodd" d="M0.333374 12C0.333374 5.55672 5.55672 0.333374 12 0.333374C18.4434 0.333374 23.6667 5.55672 23.6667 12C23.6667 18.4434 18.4434 23.6667 12 23.6667C5.55672 23.6667 0.333374 18.4434 0.333374 12ZM12 1.50004C6.20105 1.50004 1.50004 6.20105 1.50004 12C1.50004 17.799 6.20105 22.5 12 22.5C17.799 22.5 22.5 17.799 22.5 12C22.5 6.20105 17.799 1.50004 12 1.50004Z" fill="#0062E1"/>
</svg>
